#N canvas 827 239 527 327 12;
#X obj 601 314 serialosc;
#X obj 601 344 route monome;
#X obj 601 372 route enc;
#X obj 601 403 route delta;
#X obj 469 401 route 0 1 2 3;
#X obj 776 199 bitwigosc;
#X obj 750 264 route device;
#X obj 776 293 route param;
#X obj 776 324 fudiformat -u;
#X obj 776 354 list;
#X obj 776 384 fudiparse;
#X obj 776 413 route 1 2 3 4;
#X obj 707 505 route value;
#X obj 707 555 route value;
#X obj 707 609 route value;
#X obj 707 670 route value;
#X floatatom 357 459 5 0 0 0 - - - 12;
#X msg 554 120 device/param/1/value \$1;
#X obj 440 459 param-calc;
#X obj 440 521 param-calc;
#X floatatom 356 521 5 0 0 0 - - - 12;
#X msg 721 120 device/param/2/value \$1;
#X obj 440 581 param-calc;
#X floatatom 356 581 5 0 0 0 - - - 12;
#X msg 887 120 device/param/3/value \$1;
#X text 275 578 enc 3 delta;
#X text 275 517 enc 2 delta;
#X text 276 455 enc 1 delta;
#X obj 439 649 param-calc;
#X floatatom 362 649 5 0 0 0 - - - 12;
#X text 278 645 enc 4 delta;
#X msg 1064 120 device/param/4/value \$1;
#X obj 465 689 s enc4;
#X obj 466 620 s enc3;
#X obj 466 559 s enc2;
#X obj 466 498 s enc1;
#X obj 554 4 r enc1;
#X obj 725 4 r enc2;
#X obj 891 4 r enc3;
#X obj 1068 4 r enc4;
#X msg 1242 290 0;
#X msg 1657 290 2;
#X msg 1454 290 1;
#X msg 1862 290 3;
#X obj 532 689 s prm4;
#X obj 1791 235 r prm4;
#X obj 532 611 s prm3;
#X obj 1581 235 r prm3;
#X obj 1375 235 r prm2;
#X obj 532 492 s prm1;
#X obj 532 551 s prm2;
#X obj 1162 235 r prm1;
#X text 1971 395 lua script handling arc draw;
#X obj 873 419 route modulatedValue;
#X obj 830 516 route modulatedValue;
#X obj 830 584 route modulatedValue;
#X obj 830 652 route modulatedValue;
#X obj 45 35 knob 69 0 1024 0 0 empty empty #E4E4E4 #B7B7B7 #4D4D4D 1 0 0 0 1 270 0 0 0;
#X obj 163 35 knob 69 0 1024 0 0 empty empty #E4E4E4 #B7B7B7 #4D4D4D 1 0 0 0 1 270 0 0 0;
#X obj 283 35 knob 69 0 1024 0 0 empty empty #E4E4E4 #B7B7B7 #4D4D4D 1 0 0 0 1 270 0 0 0;
#X obj 402 35 knob 69 0 1024 0 0 empty empty #E4E4E4 #B7B7B7 #4D4D4D 1 0 0 0 1 270 0 0 0;
#X text 62 116 Arc 1;
#X text 179 116 Arc 2;
#X text 299 116 Arc 3;
#X text 418 116 Arc 4;
#X obj 75 234 tgl 46 0 empty empty empty 0 -11 0 12 #fcfcfc #000000 #000000 0 1;
#X obj 101 456 t b b;
#X obj 75 387 sel 1;
#X msg 560 158 project/param/1/value \$1;
#X msg 727 158 project/param/2/value \$1;
#X msg 893 158 project/param/3/value \$1;
#X msg 1064 158 project/param/4/value \$1;
#X obj 583 51 spigot;
#X obj 532 51 spigot;
#X obj 782 4 r device-mode;
#X obj 949 4 r project-mode;
#X obj 16 690 s device-mode;
#X obj 131 690 s project-mode;
#X msg 131 528 1;
#X msg 101 528 0;
#X obj 48 456 t b b;
#X msg 65 528 1;
#X msg 40 528 0;
#X obj 763 60 spigot;
#X obj 712 60 spigot;
#X obj 942 60 spigot;
#X obj 891 60 spigot;
#X obj 1121 60 spigot;
#X obj 1070 60 spigot;
#X obj 851 264 route project;
#X obj 750 231 spigot;
#X obj 817 231 spigot;
#X obj 166 456 loadbang;
#X obj 453 334 route key;
#X obj 342 359 route 0;
#X text 145 232 Mode Selection, f 15;
#X obj 249 284 param modeselect;
#X obj 307 226 delay 20;
#X obj 1024 429 spigot;
#X msg 1001 388 0;
#X msg 1031 388 1;
#X obj 1010 358 delay 50;
#X obj 694 811 spigot;
#X msg 727 770 0;
#X msg 701 770 1;
#X obj 680 740 delay 50;
#X obj 831 811 spigot;
#X msg 864 770 0;
#X msg 838 770 1;
#X obj 817 740 delay 50;
#X obj 936 811 spigot;
#X msg 969 770 0;
#X msg 943 770 1;
#X obj 922 740 delay 50;
#X obj 162 324 sel 1;
#X obj 194 390 print;
#X obj 162 359 bang;
#X obj 532 269 r led-osc0;
#X obj 1549 505 s led-osc0;
#X msg 179 528 device;
#X msg 177 620 project;
#X obj 1162 266 scale 0 1024 0 1000;
#X obj 1375 266 scale 0 1024 0 1000;
#X obj 1581 266 scale 0 1024 0 1000;
#X obj 1791 266 scale 0 1024 0 1000;
#X obj 1162 290 arc_vu 0;
#X obj 1375 290 arc_vu 1;
#X obj 1185 943 print outlet 1;
#X obj 1162 316 list store;
#X obj 1162 340 list prepend /monome/ring/map;
#X obj 1375 316 list store;
#X obj 1375 340 list prepend /monome/ring/map;
#X obj 1581 316 list store;
#X obj 1581 340 list prepend /monome/ring/map;
#X obj 1791 316 list store;
#X obj 1791 340 list prepend /monome/ring/map;
#X obj 1581 290 arc_vu 2;
#X obj 1791 290 arc_vu 3;
#X msg 181 565 0;
#X msg 198 657 1;
#X obj 830 543 scale 0 1024 0 1000;
#X obj 830 611 scale 0 1024 0 1000;
#X obj 830 679 scale 0 1024 0 1000;
#X obj 873 466 scale 0 1024 0 1000;
#X obj 1438 115 f;
#X msg 1438 203 99999;
#X obj 491 771 print value;
#X obj 1438 142 t b f;
#X obj 1228 147 f;
#X msg 1228 235 99999;
#X obj 1228 174 t b f;
#X obj 1228 203 delay 300;
#X obj 1650 147 f;
#X msg 1650 235 99999;
#X obj 1650 174 t b f;
#X obj 1650 203 delay 300;
#X obj 1862 147 f;
#X msg 1862 235 99999;
#X obj 1862 174 t b f;
#X obj 1862 203 delay 300;
#X obj 1438 171 delay 300;
#X connect 0 0 1 0;
#X connect 1 0 2 0;
#X connect 2 0 3 0;
#X connect 2 0 93 0;
#X connect 3 0 4 0;
#X connect 4 0 18 0;
#X connect 4 1 19 0;
#X connect 4 2 22 0;
#X connect 4 3 28 0;
#X connect 5 0 90 0;
#X connect 5 0 91 0;
#X connect 6 0 7 0;
#X connect 7 0 8 0;
#X connect 8 0 9 0;
#X connect 9 0 10 0;
#X connect 10 0 11 0;
#X connect 11 0 12 0;
#X connect 11 0 53 0;
#X connect 11 1 13 0;
#X connect 11 1 54 0;
#X connect 11 2 14 0;
#X connect 11 2 55 0;
#X connect 11 3 15 0;
#X connect 11 3 56 0;
#X connect 12 0 18 1;
#X connect 12 0 57 0;
#X connect 12 0 99 0;
#X connect 12 0 101 0;
#X connect 13 0 19 1;
#X connect 13 0 58 0;
#X connect 13 0 105 0;
#X connect 13 0 103 0;
#X connect 14 0 22 1;
#X connect 14 0 59 0;
#X connect 14 0 109 0;
#X connect 14 0 107 0;
#X connect 15 0 28 1;
#X connect 15 0 60 0;
#X connect 15 0 113 0;
#X connect 15 0 111 0;
#X connect 17 0 5 1;
#X connect 18 0 35 0;
#X connect 18 1 16 0;
#X connect 18 2 49 0;
#X connect 19 0 34 0;
#X connect 19 1 20 0;
#X connect 19 2 50 0;
#X connect 19 2 146 0;
#X connect 21 0 5 2;
#X connect 22 0 33 0;
#X connect 22 1 23 0;
#X connect 22 2 46 0;
#X connect 24 0 5 3;
#X connect 28 0 32 0;
#X connect 28 1 29 0;
#X connect 28 2 44 0;
#X connect 31 0 5 4;
#X connect 36 0 72 0;
#X connect 36 0 73 0;
#X connect 37 0 84 0;
#X connect 37 0 83 0;
#X connect 38 0 86 0;
#X connect 38 0 85 0;
#X connect 39 0 88 0;
#X connect 39 0 87 0;
#X connect 45 0 124 0;
#X connect 47 0 123 0;
#X connect 48 0 122 0;
#X connect 51 0 121 0;
#X connect 53 0 143 0;
#X connect 54 0 140 0;
#X connect 55 0 141 0;
#X connect 56 0 142 0;
#X connect 65 0 67 0;
#X connect 65 0 97 0;
#X connect 65 0 114 0;
#X connect 66 0 78 0;
#X connect 66 1 79 0;
#X connect 67 0 80 0;
#X connect 67 1 66 0;
#X connect 68 0 5 1;
#X connect 69 0 5 2;
#X connect 70 0 5 3;
#X connect 71 0 5 4;
#X connect 72 0 68 0;
#X connect 73 0 17 0;
#X connect 74 0 73 1;
#X connect 74 0 84 1;
#X connect 74 0 86 1;
#X connect 74 0 88 1;
#X connect 74 0 90 1;
#X connect 75 0 72 1;
#X connect 75 0 83 1;
#X connect 75 0 85 1;
#X connect 75 0 87 1;
#X connect 75 0 91 1;
#X connect 78 0 76 0;
#X connect 78 0 119 0;
#X connect 79 0 77 0;
#X connect 80 0 81 0;
#X connect 80 1 82 0;
#X connect 81 0 77 0;
#X connect 81 0 120 0;
#X connect 82 0 76 0;
#X connect 83 0 69 0;
#X connect 84 0 21 0;
#X connect 85 0 70 0;
#X connect 86 0 24 0;
#X connect 87 0 71 0;
#X connect 88 0 31 0;
#X connect 89 0 7 0;
#X connect 90 0 6 0;
#X connect 91 0 89 0;
#X connect 92 0 78 0;
#X connect 92 0 79 0;
#X connect 93 0 94 0;
#X connect 94 0 65 0;
#X connect 96 0 65 0;
#X connect 97 0 5 0;
#X connect 99 0 98 1;
#X connect 100 0 98 1;
#X connect 101 0 100 0;
#X connect 103 0 102 1;
#X connect 104 0 102 1;
#X connect 105 0 104 0;
#X connect 107 0 106 1;
#X connect 108 0 106 1;
#X connect 109 0 108 0;
#X connect 111 0 110 1;
#X connect 112 0 110 1;
#X connect 113 0 112 0;
#X connect 114 0 116 0;
#X connect 116 0 115 0;
#X connect 117 0 0 0;
#X connect 119 0 138 0;
#X connect 120 0 139 0;
#X connect 121 0 40 0;
#X connect 121 0 125 0;
#X connect 122 0 42 0;
#X connect 122 0 126 0;
#X connect 123 0 41 0;
#X connect 123 0 136 0;
#X connect 124 0 43 0;
#X connect 124 0 137 0;
#X connect 125 0 128 0;
#X connect 125 1 128 1;
#X connect 126 0 130 0;
#X connect 126 1 130 1;
#X connect 128 0 129 0;
#X connect 129 0 118 0;
#X connect 130 0 131 0;
#X connect 131 0 118 0;
#X connect 132 0 133 0;
#X connect 133 0 118 0;
#X connect 134 0 135 0;
#X connect 135 0 118 0;
#X connect 136 0 132 0;
#X connect 136 1 132 1;
#X connect 137 0 134 0;
#X connect 137 1 134 1;
#X connect 138 0 125 1;
#X connect 138 0 126 1;
#X connect 138 0 136 1;
#X connect 138 0 137 1;
#X connect 139 0 125 1;
#X connect 139 0 126 1;
#X connect 139 0 136 1;
#X connect 139 0 137 1;
#X connect 140 0 102 0;
#X connect 140 0 144 0;
#X connect 141 0 106 0;
#X connect 141 0 152 0;
#X connect 142 0 110 0;
#X connect 142 0 156 0;
#X connect 143 0 98 0;
#X connect 143 0 148 0;
#X connect 144 0 147 0;
#X connect 145 0 126 2;
#X connect 147 0 160 0;
#X connect 147 1 126 2;
#X connect 148 0 150 0;
#X connect 149 0 125 2;
#X connect 150 0 151 0;
#X connect 150 1 125 2;
#X connect 151 0 149 0;
#X connect 152 0 154 0;
#X connect 153 0 136 2;
#X connect 154 0 155 0;
#X connect 154 1 136 2;
#X connect 155 0 153 0;
#X connect 156 0 158 0;
#X connect 157 0 137 2;
#X connect 158 0 159 0;
#X connect 158 1 137 2;
#X connect 159 0 157 0;
#X connect 160 0 145 0;
