#N canvas 827 239 527 327 12;
#X obj 703 93 loadbang;
#X msg 666 283 \$0;
#X msg 665 339 listen \$1;
#X obj 665 367 netreceive -u -b;
#X obj 665 313 + 9000;
#X obj 665 396 oscparse;
#X obj 665 425 list trim;
#X obj 665 453 outlet bitwigOSC;
#N canvas 808 37 364 232 packOSC 0;
#X obj 50 210 oscformat;
#X msg 50 172 set \$1;
#X obj 23 94 list split 1;
#X obj 23 19 inlet;
#X text 123 92 assume first element is the address;
#X text 143 169 everything else is the message;
#X text 105 15 an mrpeach/packOSC wrapper for oscformat;
#X obj 102 172 list;
#X obj 23 127 t b a;
#X obj 536 348 outlet bitwig;
#X obj 50 238 outlet monome;
#X obj 536 303 oscformat;
#X msg 1062 202 set \$1;
#X obj 1126 202 list;
#X msg 536 154 set \$1;
#X obj 151 290 print monome-osc-list;
#X obj 488 19 inlet;
#X obj 405 154 loadbang;
#X obj 420 200 delay 50;
#X obj 599 45 unpack s f;
#X obj 836 134 pipe f 1;
#X obj 377 310 t b b;
#X obj 584 221 list;
#X obj 357 239 bng 25 250 50 0 empty empty empty 17 7 0 10 #e4e4e4 #4d4d4d #373737;
#X obj 390 372 oscformat refresh;
#X connect 0 0 10 0;
#X connect 1 0 0 0;
#X connect 1 0 15 0;
#X connect 2 0 8 0;
#X connect 2 1 7 1;
#X connect 3 0 2 0;
#X connect 7 0 0 0;
#X connect 8 0 7 0;
#X connect 8 1 1 0;
#X connect 11 0 9 0;
#X connect 14 0 11 0;
#X connect 16 0 19 0;
#X connect 17 0 18 0;
#X connect 18 0 21 0;
#X connect 19 0 14 0;
#X connect 19 1 20 0;
#X connect 20 0 11 0;
#X connect 21 1 24 0;
#X connect 22 0 11 0;
#X connect 23 0 21 0;
#X connect 24 0 9 0;
#X restore 942 279 pd packOSC;
#X obj 1132 472 netsend -u -b;
#X obj 1002 310 list prepend send;
#X obj 1002 356 list trim;
#X obj 1002 229 inlet;
#X msg 749 339 connect localhost 8000;
#X msg 1282 432 disconnect;
#X obj 703 150 t b b b b;
#N canvas 808 37 364 232 packOSC 0;
#X obj 50 210 oscformat;
#X msg 50 172 set \$1;
#X obj 23 94 list split 1;
#X obj 23 19 inlet;
#X text 123 92 assume first element is the address;
#X text 143 169 everything else is the message;
#X text 105 15 an mrpeach/packOSC wrapper for oscformat;
#X obj 102 172 list;
#X obj 23 127 t b a;
#X obj 536 348 outlet bitwig;
#X obj 50 238 outlet monome;
#X obj 536 303 oscformat;
#X msg 1062 202 set \$1;
#X obj 1126 202 list;
#X msg 536 154 set \$1;
#X obj 151 290 print monome-osc-list;
#X obj 488 19 inlet;
#X obj 405 154 loadbang;
#X obj 420 200 delay 50;
#X obj 599 45 unpack s f;
#X obj 836 134 pipe f 1;
#X obj 377 310 t b b;
#X obj 584 221 list;
#X obj 357 239 bng 25 250 50 0 empty empty empty 17 7 0 10 #e4e4e4 #4d4d4d #373737;
#X obj 390 372 oscformat refresh;
#X connect 0 0 10 0;
#X connect 1 0 0 0;
#X connect 1 0 15 0;
#X connect 2 0 8 0;
#X connect 2 1 7 1;
#X connect 3 0 2 0;
#X connect 7 0 0 0;
#X connect 8 0 7 0;
#X connect 8 1 1 0;
#X connect 11 0 9 0;
#X connect 14 0 11 0;
#X connect 16 0 19 0;
#X connect 17 0 18 0;
#X connect 18 0 21 0;
#X connect 19 0 14 0;
#X connect 19 1 20 0;
#X connect 20 0 11 0;
#X connect 21 1 24 0;
#X connect 22 0 11 0;
#X connect 23 0 21 0;
#X connect 24 0 9 0;
#X restore 1072 279 pd packOSC;
#X obj 1132 310 list prepend send;
#X obj 1132 356 list trim;
#X obj 1132 229 inlet;
#N canvas 808 37 364 232 packOSC 0;
#X obj 50 210 oscformat;
#X msg 50 172 set \$1;
#X obj 23 94 list split 1;
#X obj 23 19 inlet;
#X text 123 92 assume first element is the address;
#X text 143 169 everything else is the message;
#X text 105 15 an mrpeach/packOSC wrapper for oscformat;
#X obj 102 172 list;
#X obj 23 127 t b a;
#X obj 536 348 outlet bitwig;
#X obj 50 238 outlet monome;
#X obj 536 303 oscformat;
#X msg 1062 202 set \$1;
#X obj 1126 202 list;
#X msg 536 154 set \$1;
#X obj 151 290 print monome-osc-list;
#X obj 488 19 inlet;
#X obj 405 154 loadbang;
#X obj 420 200 delay 50;
#X obj 599 45 unpack s f;
#X obj 836 134 pipe f 1;
#X obj 377 310 t b b;
#X obj 584 221 list;
#X obj 357 239 bng 25 250 50 0 empty empty empty 17 7 0 10 #e4e4e4 #4d4d4d #373737;
#X obj 390 372 oscformat refresh;
#X connect 0 0 10 0;
#X connect 1 0 0 0;
#X connect 1 0 15 0;
#X connect 2 0 8 0;
#X connect 2 1 7 1;
#X connect 3 0 2 0;
#X connect 7 0 0 0;
#X connect 8 0 7 0;
#X connect 8 1 1 0;
#X connect 11 0 9 0;
#X connect 14 0 11 0;
#X connect 16 0 19 0;
#X connect 17 0 18 0;
#X connect 18 0 21 0;
#X connect 19 0 14 0;
#X connect 19 1 20 0;
#X connect 20 0 11 0;
#X connect 21 1 24 0;
#X connect 22 0 11 0;
#X connect 23 0 21 0;
#X connect 24 0 9 0;
#X restore 1214 279 pd packOSC;
#X obj 1274 310 list prepend send;
#X obj 1274 356 list trim;
#X obj 1274 229 inlet;
#N canvas 808 37 364 232 packOSC 0;
#X obj 50 210 oscformat;
#X msg 50 172 set \$1;
#X obj 23 94 list split 1;
#X obj 23 19 inlet;
#X text 123 92 assume first element is the address;
#X text 143 169 everything else is the message;
#X text 105 15 an mrpeach/packOSC wrapper for oscformat;
#X obj 102 172 list;
#X obj 23 127 t b a;
#X obj 536 348 outlet bitwig;
#X obj 50 238 outlet monome;
#X obj 536 303 oscformat;
#X msg 1062 202 set \$1;
#X obj 1126 202 list;
#X msg 536 154 set \$1;
#X obj 151 290 print monome-osc-list;
#X obj 488 19 inlet;
#X obj 405 154 loadbang;
#X obj 420 200 delay 50;
#X obj 599 45 unpack s f;
#X obj 836 134 pipe f 1;
#X obj 377 310 t b b;
#X obj 584 221 list;
#X obj 357 239 bng 25 250 50 0 empty empty empty 17 7 0 10 #e4e4e4 #4d4d4d #373737;
#X obj 390 372 oscformat refresh;
#X connect 0 0 10 0;
#X connect 1 0 0 0;
#X connect 1 0 15 0;
#X connect 2 0 8 0;
#X connect 2 1 7 1;
#X connect 3 0 2 0;
#X connect 7 0 0 0;
#X connect 8 0 7 0;
#X connect 8 1 1 0;
#X connect 11 0 9 0;
#X connect 14 0 11 0;
#X connect 16 0 19 0;
#X connect 17 0 18 0;
#X connect 18 0 21 0;
#X connect 19 0 14 0;
#X connect 19 1 20 0;
#X connect 20 0 11 0;
#X connect 21 1 24 0;
#X connect 22 0 11 0;
#X connect 23 0 21 0;
#X connect 24 0 9 0;
#X restore 1358 279 pd packOSC;
#X obj 1418 310 list prepend send;
#X obj 1418 356 list trim;
#X obj 1418 229 inlet;
#X obj 807 203 inlet;
#X obj 807 279 oscformat refresh;
#X msg 749 310 connect localhost 9000;
#X connect 0 0 15 0;
#X connect 1 0 4 0;
#X connect 2 0 3 0;
#X connect 3 0 5 0;
#X connect 4 0 2 0;
#X connect 5 0 6 0;
#X connect 6 0 7 0;
#X connect 8 1 10 0;
#X connect 10 0 11 0;
#X connect 11 0 9 0;
#X connect 12 0 8 1;
#X connect 13 0 9 0;
#X connect 14 0 9 0;
#X connect 15 0 29 0;
#X connect 15 1 13 0;
#X connect 15 1 30 0;
#X connect 15 2 1 0;
#X connect 16 1 17 0;
#X connect 17 0 18 0;
#X connect 18 0 9 0;
#X connect 19 0 16 1;
#X connect 20 1 21 0;
#X connect 21 0 22 0;
#X connect 22 0 9 0;
#X connect 23 0 20 1;
#X connect 24 1 25 0;
#X connect 25 0 26 0;
#X connect 26 0 9 0;
#X connect 27 0 24 1;
#X connect 28 0 29 0;
#X connect 29 0 10 0;
#X connect 30 0 9 0;
