#N canvas 827 239 527 327 12;
#X obj 146 215 oscformat;
#X msg 146 177 set \$1;
#X text 229 22 an mrpeach/packOSC wrapper for oscformat;
#X obj 198 177 list;
#X obj 119 132 t b a;
#X obj 145 248 list prepend send;
#X obj 145 270 list trim;
#X obj 119 99 list split 1;
#X obj 307 69 bng 25 250 50 0 empty empty empty 17 7 0 10 #e4e4e4 #4d4d4d #373737;
#X obj 450 403 print;
#X obj 428 186 list store;
#X msg 423 117 localhost;
#X msg 560 134 12289;
#X connect 0 0 5 0;
#X connect 1 0 0 0;
#X connect 3 0 0 0;
#X connect 4 0 3 0;
#X connect 4 1 1 0;
#X connect 5 0 6 0;
#X connect 7 0 4 0;
#X connect 7 1 3 1;
#X connect 8 0 11 0;
#X connect 8 0 12 0;
#X connect 10 0 9 0;
#X connect 11 0 10 0;
#X connect 12 0 10 1;
