#N canvas 733 172 450 300 12;
#X obj 258 484 f;
#X obj 420 414 t b;
#X obj 403 590 spigot;
#X msg 433 459 0;
#X obj 400 495 delay 100;
#X msg 403 552 1;
#X obj 258 453 bang;
#X obj 293 372 t b f b;
#X obj 456 536 max 0;
#X obj 456 563 min 1024;
#X obj 370 414 f;
#X obj 450 643 +;
#X floatatom 403 677 5 0 0 0 - - - 12;
#X obj 403 643 f;
#X floatatom 161 552 5 0 0 0 - - - 12;
#X obj 456 459 t f b;
#X msg 356 563 0;
#X obj 258 552 spigot;
#X msg 342 444 1;
#X obj 467 590 delay 80;
#X floatatom 161 507 5 0 0 0 - - - 12;
#X obj 456 507 f;
#X obj 322 484 bang;
#X msg 325 414 1;
#X obj 497 671 max 0;
#X obj 497 694 min 1024;
#X obj 263 286 inlet;
#X obj 456 414 inlet;
#X obj 370 459 outlet;
#X obj 258 519 change;
#X obj 258 605 outlet to-bitwig;
#X obj 403 741 outlet to-led;
#X floatatom 501 507 5 0 0 0 - - - 12;
#X obj 478 196 loadbang;
#X obj 293 334 * \$1;
#X obj 325 286 r speed;
#X obj 386 233 loadbang;
#X msg 386 259 1;
#X connect 0 0 20 0;
#X connect 0 0 29 0;
#X connect 1 0 3 0;
#X connect 1 0 4 0;
#X connect 2 0 13 0;
#X connect 2 0 13 1;
#X connect 3 0 2 1;
#X connect 4 0 5 0;
#X connect 5 0 2 1;
#X connect 6 0 0 0;
#X connect 7 0 6 0;
#X connect 7 1 10 0;
#X connect 7 1 10 1;
#X connect 7 2 23 0;
#X connect 7 2 1 0;
#X connect 8 0 9 0;
#X connect 9 0 2 0;
#X connect 10 0 11 0;
#X connect 10 0 28 0;
#X connect 11 0 24 0;
#X connect 12 0 0 0;
#X connect 12 0 0 1;
#X connect 13 0 11 1;
#X connect 13 0 12 0;
#X connect 13 0 31 0;
#X connect 15 0 21 0;
#X connect 15 0 21 1;
#X connect 15 0 32 0;
#X connect 15 1 19 0;
#X connect 15 1 16 0;
#X connect 16 0 17 1;
#X connect 17 0 14 0;
#X connect 17 0 30 0;
#X connect 18 0 22 0;
#X connect 18 0 17 1;
#X connect 19 0 18 0;
#X connect 21 0 8 0;
#X connect 22 0 0 0;
#X connect 23 0 17 1;
#X connect 24 0 25 0;
#X connect 25 0 13 0;
#X connect 26 0 34 0;
#X connect 27 0 15 0;
#X connect 29 0 17 0;
#X connect 33 0 5 0;
#X connect 33 0 18 0;
#X connect 34 0 7 0;
#X connect 35 0 34 1;
#X connect 36 0 37 0;
#X connect 37 0 34 1;
