#N canvas 34 78 1227 794 10;
#X obj 465 238 outlet OSC-from-serialosc;
#X obj 142 24 loadbang;
#X msg 468 74 \$0;
#X obj 467 104 + 12289;
#X obj 672 289 spigot 0;
#X obj 762 233 t b;
#X obj 672 314 unpack s s f;
#X obj 685 416 float;
#X obj 52 351 float;
#X obj 113 350 float;
#X msg 189 505 connect localhost 12002;
#X msg 910 524 connect localhost \$1;
#X obj 741 367 t b b b f b;
#X msg 929 488 disconnect;
#X obj 142 56 t b b b b 1;
#X obj 153 276 t b b b b, f 12;
#X msg 153 315 1;
#X obj 741 343 t f b;
#X msg 771 293 0;
#X obj 741 451 outlet bang-on-connect;
#X msg 467 132 listen \$1;
#X obj 467 156 netreceive -u -b;
#X obj 466 204 list trim;
#X obj 810 611 netsend -u -b;
#X obj 52 574 netsend -u -b;
#X obj 52 505 list prepend send;
#X obj 52 527 list trim;
#N canvas 808 37 364 232 packOSC 0;
#X obj 50 169 oscformat;
#X msg 50 131 set \$1;
#X obj 23 53 list split 1;
#X obj 50 197 outlet;
#X obj 23 19 inlet;
#X text 123 55 assume first element is the address;
#X text 143 132 everything else is the message;
#X text 105 19 an mrpeach/packOSC wrapper for oscformat;
#X obj 102 131 list;
#X obj 23 86 t b a;
#X connect 0 0 3 0;
#X connect 1 0 0 0;
#X connect 2 0 9 0;
#X connect 2 1 8 1;
#X connect 4 0 2 0;
#X connect 8 0 0 0;
#X connect 9 0 8 0;
#X connect 9 1 1 0;
#X restore 52 457 pd packOSC;
#N canvas 808 37 364 232 packOSC 1;
#X obj 50 210 oscformat;
#X msg 50 172 set \$1;
#X obj 23 94 list split 1;
#X text -214 93 assume first element is the address;
#X text -194 170 everything else is the message;
#X text 133 18 an mrpeach/packOSC wrapper for oscformat;
#X obj 102 172 list;
#X obj 23 127 t b a;
#X obj 49 294 outlet monome;
#X msg 1062 202 set \$1;
#X obj 1126 202 list;
#X obj 325 412 print packOSC-Bitwig-fork;
#X obj 23 19 inlet enc0;
#X obj 49 243 list prepend send;
#X obj 49 265 list trim;
#X connect 0 0 13 0;
#X connect 1 0 0 0;
#X connect 2 0 7 0;
#X connect 2 1 6 1;
#X connect 6 0 0 0;
#X connect 7 0 6 0;
#X connect 7 1 1 0;
#X connect 12 0 2 0;
#X connect 13 0 14 0;
#X connect 14 0 8 0;
#X restore 727 532 pd packOSC;
#X msg 129 543 disconnect;
#X msg 113 378 /serialosc/list localhost \$1;
#X msg 52 415 /serialosc/notify localhost \$1;
#X msg 615 499 /sys/port \$1;
#X obj 672 204 route device remove add;
#X obj 672 154 route serialosc;
#X msg 533 416 /sys/prefix /monome;
#X obj 465 180 oscparse;
#X obj 1214 467 netsend -u -b;
#X msg 1291 436 disconnect;
#X msg 1351 398 connect localhost 9000;
#X msg 209 104 connect localhost 8000;
#X obj 296 709 netsend -u -b;
#X msg 257 132 disconnect;
#X obj 475 603 list prepend send;
#X obj 475 633 list trim;
#X obj 1020 488 print \$1;
#X msg 975 378 bitwig flush;
#X obj 895 160 route sys;
#X obj 895 195 route size;
#X obj 895 233 unpack f f;
#X floatatom 895 293 5 0 0 0 - - - 12;
#X floatatom 941 293 3 0 0 0 - - - 16;
#X msg 594 458 sys/info localhost \$1;
#X text 257 80 port of bitwig;
#X obj 727 499 inlet OSC-to-enc0;
#X connect 1 0 14 0;
#X connect 2 0 3 0;
#X connect 3 0 20 0;
#X connect 3 0 8 1;
#X connect 3 0 9 1;
#X connect 3 0 7 1;
#X connect 4 0 6 0;
#X connect 5 0 15 0;
#X connect 6 2 17 0;
#X connect 7 0 32 0;
#X connect 7 0 52 0;
#X connect 8 0 31 0;
#X connect 9 0 30 0;
#X connect 10 0 24 0;
#X connect 11 0 23 0;
#X connect 12 0 19 0;
#X connect 12 0 46 0;
#X connect 12 1 35 0;
#X connect 12 2 7 0;
#X connect 12 3 11 0;
#X connect 12 3 45 0;
#X connect 12 4 13 0;
#X connect 13 0 23 0;
#X connect 14 1 15 0;
#X connect 14 2 2 0;
#X connect 14 3 10 0;
#X connect 14 3 40 0;
#X connect 15 1 8 0;
#X connect 15 2 9 0;
#X connect 15 3 16 0;
#X connect 16 0 4 1;
#X connect 17 0 12 0;
#X connect 17 1 18 0;
#X connect 18 0 4 1;
#X connect 20 0 21 0;
#X connect 21 0 36 0;
#X connect 22 0 34 0;
#X connect 22 0 0 0;
#X connect 25 0 26 0;
#X connect 26 0 24 0;
#X connect 27 0 25 0;
#X connect 28 0 23 0;
#X connect 29 0 24 0;
#X connect 30 0 27 0;
#X connect 31 0 27 0;
#X connect 33 0 4 0;
#X connect 33 1 5 0;
#X connect 33 2 5 0;
#X connect 34 0 33 0;
#X connect 34 0 47 0;
#X connect 36 0 22 0;
#X connect 38 0 37 0;
#X connect 39 0 37 0;
#X connect 40 0 41 0;
#X connect 42 0 41 0;
#X connect 43 0 44 0;
#X connect 44 0 41 0;
#X connect 47 0 48 0;
#X connect 48 0 49 0;
#X connect 49 0 50 0;
#X connect 49 1 51 0;
#X connect 54 0 28 0;
