#N canvas 34 78 1227 794 10;
#X obj 465 238 outlet OSC-from-serialosc;
#X obj 446 458 inlet OSC-to-serialosc;
#X obj 142 24 loadbang;
#X msg 468 74 \$0;
#X obj 467 104 + 12289;
#X obj 672 289 spigot 0;
#X obj 762 233 t b;
#X obj 672 314 unpack s s f;
#X obj 685 416 float;
#X obj 52 351 float;
#X obj 113 350 float;
#X msg 189 505 connect localhost 12002;
#X msg 796 524 connect localhost \$1;
#X obj 741 367 t b b b f b;
#X msg 815 488 disconnect;
#X obj 142 56 t b b b b 1;
#X obj 153 276 t b b b b, f 12;
#X msg 153 315 1;
#X obj 741 343 t f b;
#X msg 771 293 0;
#X obj 594 603 list prepend send;
#X obj 594 625 list trim;
#X obj 741 451 outlet bang-on-connect;
#X msg 467 132 listen \$1;
#X obj 467 156 netreceive -u -b;
#X obj 466 204 list trim;
#X obj 594 648 netsend -u -b;
#X obj 52 574 netsend -u -b;
#X obj 52 505 list prepend send;
#X obj 52 527 list trim;
#N canvas 808 37 364 232 packOSC 0;
#X obj 50 169 oscformat;
#X msg 50 131 set \$1;
#X obj 23 53 list split 1;
#X obj 50 197 outlet;
#X obj 23 19 inlet;
#X text 123 55 assume first element is the address;
#X text 143 132 everything else is the message;
#X text 105 19 an mrpeach/packOSC wrapper for oscformat;
#X obj 102 131 list;
#X obj 23 86 t b a;
#X connect 0 0 3 0;
#X connect 1 0 0 0;
#X connect 2 0 9 0;
#X connect 2 1 8 1;
#X connect 4 0 2 0;
#X connect 8 0 0 0;
#X connect 9 0 8 0;
#X connect 9 1 1 0;
#X restore 52 457 pd packOSC;
#N canvas 808 37 364 232 packOSC 0;
#X obj 50 210 oscformat;
#X msg 50 172 set \$1;
#X obj 23 94 list split 1;
#X obj 23 19 inlet;
#X text 123 93 assume first element is the address;
#X text 143 170 everything else is the message;
#X text 105 16 an mrpeach/packOSC wrapper for oscformat;
#X obj 102 172 list;
#X obj 23 127 t b a;
#X obj 212 54 route bitwig;
#X obj 536 348 outlet bitwig;
#X obj 50 238 outlet monome;
#X obj 536 303 oscformat;
#X msg 1062 202 set \$1;
#X obj 1126 202 list;
#X obj 766 133 unpack s f;
#X msg 497 172 set \$1;
#X obj 560 87 unpack s f;
#X obj 181 328 print packOSC-Bitwig-fork;
#X obj 678 339 print bw-set;
#X obj 678 388 print bw-osc-format;
#X obj 181 281 print monome-osc-list;
#X obj 487 28 inlet;
#X obj 362 54 route sys;
#X connect 0 0 11 0;
#X connect 1 0 0 0;
#X connect 2 0 8 0;
#X connect 2 1 7 1;
#X connect 3 0 9 0;
#X connect 7 0 0 0;
#X connect 8 0 7 0;
#X connect 8 1 1 0;
#X connect 9 0 17 0;
#X connect 9 1 2 0;
#X connect 12 0 10 0;
#X connect 16 0 12 0;
#X connect 17 0 16 0;
#X connect 17 1 12 0;
#X restore 534 549 pd packOSC;
#X msg 129 543 disconnect;
#X msg 113 378 /serialosc/list localhost \$1;
#X msg 52 415 /serialosc/notify localhost \$1;
#X msg 615 499 /sys/port \$1;
#X obj 672 204 route device remove add;
#X obj 672 160 route serialosc;
#X msg 533 416 /sys/prefix /monome;
#X obj 465 180 oscparse;
#X obj 1091 469 netsend -u -b;
#X msg 1120 434 disconnect;
#X msg 1120 396 connect localhost 9000;
#X msg 209 104 connect localhost 8000;
#X obj 296 709 netsend -u -b;
#X msg 257 132 disconnect;
#X obj 475 603 list prepend send;
#X obj 475 633 list trim;
#X obj 876 585 print \$1;
#X msg 446 367 bitwig flush;
#X obj 895 160 route sys;
#X obj 895 195 route size;
#X floatatom 895 293 5 0 0 0 - - - 12;
#X floatatom 941 293 5 0 0 0 - - - 12;
#X msg 594 458 sys/info localhost 12289;
#X obj 81 18 bng 25 250 50 0 empty empty empty 17 7 0 10 #e4e4e4 #4d4d4d #373737;
#X obj 895 233 unpack i i;
#X connect 1 0 31 0;
#X connect 2 0 15 0;
#X connect 3 0 4 0;
#X connect 4 0 23 0;
#X connect 4 0 9 1;
#X connect 4 0 10 1;
#X connect 4 0 8 1;
#X connect 5 0 7 0;
#X connect 6 0 16 0;
#X connect 7 2 18 0;
#X connect 8 0 35 0;
#X connect 9 0 34 0;
#X connect 10 0 33 0;
#X connect 11 0 27 0;
#X connect 12 0 26 0;
#X connect 13 0 22 0;
#X connect 13 0 49 0;
#X connect 13 1 38 0;
#X connect 13 1 54 0;
#X connect 13 2 8 0;
#X connect 13 3 12 0;
#X connect 13 3 48 0;
#X connect 13 4 14 0;
#X connect 14 0 26 0;
#X connect 15 1 16 0;
#X connect 15 2 3 0;
#X connect 15 3 11 0;
#X connect 15 3 43 0;
#X connect 16 1 9 0;
#X connect 16 2 10 0;
#X connect 16 3 17 0;
#X connect 17 0 5 1;
#X connect 18 0 13 0;
#X connect 18 1 19 0;
#X connect 19 0 5 1;
#X connect 20 0 21 0;
#X connect 21 0 26 0;
#X connect 23 0 24 0;
#X connect 24 0 39 0;
#X connect 25 0 0 0;
#X connect 25 0 37 0;
#X connect 28 0 29 0;
#X connect 29 0 27 0;
#X connect 30 0 28 0;
#X connect 31 0 20 0;
#X connect 31 1 46 0;
#X connect 32 0 27 0;
#X connect 33 0 30 0;
#X connect 34 0 30 0;
#X connect 35 0 31 0;
#X connect 36 0 5 0;
#X connect 36 0 50 0;
#X connect 36 1 6 0;
#X connect 36 2 6 0;
#X connect 37 0 36 0;
#X connect 38 0 31 0;
#X connect 39 0 25 0;
#X connect 41 0 40 0;
#X connect 42 0 40 0;
#X connect 43 0 44 0;
#X connect 45 0 44 0;
#X connect 46 0 47 0;
#X connect 47 0 44 0;
#X connect 49 0 31 0;
#X connect 50 0 51 0;
#X connect 51 0 56 0;
#X connect 54 0 31 0;
#X connect 55 0 15 0;
#X connect 56 0 52 0;
#X connect 56 1 53 0;
